<svg width="61" height="45" viewBox="0 0 61 45" fill="none" xmlns="http://www.w3.org/2000/svg">
<ellipse cx="31.2354" cy="22.1833" rx="22.3235" ry="22" fill="#E7EEF6"/>
<path d="M49.4498 32.0798V14.0009C49.4498 13.1961 48.7872 12.5377 47.9772 12.5377H24.4616C23.6517 12.5377 22.989 13.1961 22.989 14.0009V32.0889H49.4498V32.0798Z" fill="#7991BE"/>
<path d="M51.9805 12.5377H47.4799C48.2898 12.5377 48.9525 13.1961 48.9525 14.0009V32.0889H53.4531V14.0009C53.4531 13.187 52.7996 12.5377 51.9805 12.5377Z" fill="#606483"/>
<path d="M49.4491 15.3636H26.8079C26.2649 15.3636 25.8323 15.7934 25.8323 16.333V31.193H49.4491V15.3636Z" fill="white"/>
<path d="M50.6093 31.1839V16.333C50.6093 15.7934 50.1675 15.3636 49.6337 15.3636H48.9526V31.193H50.6093V31.1839Z" fill="#F3F6F8"/>
<path d="M51.6493 32.9028V31.1836H21.4425C20.9547 31.1836 20.559 31.5768 20.559 32.0615C20.559 33.799 21.9763 35.2072 23.7251 35.2072H49.3299C50.6092 35.2164 51.6493 34.183 51.6493 32.9028Z" fill="#7991BE"/>
<path d="M54.9994 31.1836H51.3823V32.9028C51.3823 34.1739 50.3423 35.2072 49.063 35.2072H52.7169C54.4656 35.2072 55.883 33.799 55.883 32.0615C55.883 31.5768 55.4872 31.1836 54.9994 31.1836Z" fill="#606483"/>
<path d="M32.8368 31.1836C32.8368 32.2992 33.748 33.1954 34.8616 33.1954H41.5712C42.694 33.1954 43.596 32.2901 43.596 31.1836H32.8368Z" fill="#606483"/>
<path d="M40.8193 16.406H38.8424C37.8631 16.406 37.0669 17.1907 37.0669 18.1558V19.8424L37.4238 20.095H40.9749V16.6676L40.8193 16.406Z" fill="#F9CC5D"/>
<path d="M44.7088 25.5156L42.1737 24.785H38.2108L35.6756 25.5156C34.7696 25.7772 34.1472 26.598 34.1472 27.536V31.0897H46.2464V27.536C46.2372 26.598 45.6149 25.7772 44.7088 25.5156Z" fill="#E7EEF6"/>
<path d="M44.7089 25.5156L42.1738 24.785H40.2061L40.2244 25.7772L42.2104 26.3815C43.1164 26.6431 43.7388 27.4638 43.7388 28.4019V31.0987H46.2373V27.545C46.2373 26.598 45.615 25.7772 44.7089 25.5156Z" fill="#D8DEEB"/>
<path d="M40.5808 27.1935H39.812L39.1165 31.0719V31.0809H41.2764L40.5808 27.1935Z" fill="#606483"/>
<path d="M41.5884 24.9475V22.7467H38.8062V24.9475C38.8062 25.7051 40.1973 25.7682 40.1973 25.7682C40.1973 25.7682 41.5884 25.7051 41.5884 24.9475Z" fill="#FFDDCE"/>
<path d="M44.5258 31.0809V29.8632C44.5258 29.7009 44.3977 29.5746 44.2329 29.5746C44.0682 29.5746 43.9401 29.7009 43.9401 29.8632V31.0809H44.5258Z" fill="#B9CBEA"/>
<path d="M42.549 17.4251H42.5215C42.3751 17.4251 42.2653 17.3078 42.2653 17.1726C42.2653 16.7577 41.9175 16.4149 41.4965 16.4149H40.8192V20.1039H42.9608L43.3177 19.8514V18.1918C43.3177 17.7678 42.97 17.4251 42.549 17.4251Z" fill="#F7BD3C"/>
<path d="M38.2565 24.6319L37.8629 24.8032C37.6341 24.9025 37.5792 25.2001 37.7531 25.3715L38.8514 26.4538C38.9887 26.5891 39.2083 26.5981 39.3547 26.4719L40.215 25.7593L38.7507 24.677C38.6134 24.5868 38.4212 24.5597 38.2565 24.6319Z" fill="#B9CBEA"/>
<path d="M41.6242 24.695L40.2147 25.7683L41.0201 26.4538C41.1665 26.58 41.3862 26.571 41.5326 26.4357L42.6309 25.3804C42.8139 25.2091 42.759 24.9114 42.5302 24.8122L42.1275 24.6318C41.9628 24.5597 41.7706 24.5867 41.6242 24.695Z" fill="#B9CBEA"/>
<path d="M40.2241 25.7682L39.3729 26.4627L39.8031 27.1933H40.5719L41.002 26.4266L40.2241 25.7682Z" fill="#606483"/>
<path d="M36.4539 31.0809V29.8632C36.4539 29.7009 36.3258 29.5746 36.161 29.5746C35.9963 29.5746 35.8682 29.7009 35.8682 29.8632V31.0809H36.4539Z" fill="#B9CBEA"/>
<path d="M40.9749 21.3757V18.6338C40.2793 18.76 39.5563 18.7149 38.879 18.4985C38.5129 18.3812 38.1377 18.6518 38.1377 19.0306V19.3192C38.1377 19.6079 37.8997 19.8514 37.5977 19.8514H37.0669V20.7173C37.0669 20.9337 37.2499 21.1141 37.4696 21.1141C37.5428 21.1141 37.5977 21.1682 37.5977 21.2404C37.6709 22.4129 38.5495 23.369 39.6936 23.5855C40.4532 23.1165 40.9566 22.3047 40.9749 21.3757Z" fill="#FFDDCE"/>
<path d="M42.7866 19.8424C42.4937 19.8424 42.2466 19.6079 42.2466 19.3102V19.0216C42.2466 18.6428 41.8714 18.3722 41.5053 18.4894C41.2765 18.5616 41.0477 18.6157 40.8189 18.6518V21.3306C40.8006 22.2686 40.2698 23.0894 39.4918 23.5223C39.7115 23.5855 39.9494 23.6125 40.1874 23.6125C41.5602 23.6125 42.6859 22.5572 42.7775 21.2224C42.7775 21.1502 42.8415 21.0961 42.9056 21.0961C43.1252 21.0961 43.3083 20.9157 43.3083 20.6992V19.8424H42.7866Z" fill="#FFCBBE"/>
<path d="M39.9234 10.5991H38.7545V12.5286H39.9234V10.5991Z" fill="#606483"/>
<path d="M41.9391 9.42887C41.9391 10.8554 40.7702 12.0168 39.3344 12.0168C37.8986 12.0168 36.7297 10.8554 36.7297 9.42887C36.7297 8.00231 37.8986 6.84094 39.3344 6.84094C40.7794 6.84094 41.9391 7.99317 41.9391 9.42887Z" fill="#B6C2DA"/>
<path d="M40.5494 9.4284C40.5494 10.096 40.0064 10.6355 39.3345 10.6355C38.6627 10.6355 38.1196 10.096 38.1196 9.4284C38.1196 8.76085 38.6627 8.22131 39.3345 8.22131C40.0064 8.22131 40.5494 8.76085 40.5494 9.4284Z" fill="#606483"/>
<path d="M39.9142 9.42853C39.9142 9.74859 39.6565 10.0046 39.3344 10.0046C39.0122 10.0046 38.7545 9.74859 38.7545 9.42853C38.7545 9.10847 39.0122 8.85242 39.3344 8.85242C39.6565 8.85242 39.9142 9.10847 39.9142 9.42853Z" fill="#1E1D2E"/>
<path opacity="0.7" d="M39.987 8.98962C39.987 9.1085 39.8952 9.19995 39.7758 9.19995C39.6564 9.19995 39.5646 9.1085 39.5646 8.98962C39.5646 8.87074 39.6564 8.7793 39.7758 8.7793C39.8952 8.7793 39.987 8.87074 39.987 8.98962Z" fill="white"/>
<path opacity="0.1" d="M41.939 9.42875C41.939 8.00219 40.7701 6.84082 39.3344 6.84082V12.0167C40.7793 12.0167 41.939 10.8553 41.939 9.42875Z" fill="#D8DEEB"/>
<path d="M26.7582 8.11621H22.537C20.7327 8.11621 19.2677 9.55997 19.2677 11.3381V14.4459L22.0156 19.5194L27.1141 20.1557V9.02162L26.7582 8.11621Z" fill="#CB7B4F"/>
<path d="M29.3826 9.99228H29.333C29.0681 9.99228 28.8529 9.7802 28.8529 9.51918C28.8529 8.74428 28.2156 8.11621 27.4293 8.11621H26.7506V20.0904L28.8033 19.2013L30.7897 14.4459V11.3871C30.798 10.6122 30.1606 9.99228 29.3826 9.99228Z" fill="#B65D37"/>
<path d="M34.0496 29.2178C34.0496 27.6925 33.0481 26.3466 31.5748 25.8898L27.5863 23.9485L26.0633 23.3612L25.037 23.3286L20.2779 23.4917L15.9243 24.8539C14.4428 25.3107 13.4413 26.6647 13.4413 28.1819V39.9691C13.4413 40.6787 14.0207 41.2497 14.7407 41.2497H34.0496V29.2178Z" fill="#FFA04F"/>
<path d="M34.1496 24.854L29.796 23.4918L25.7487 23.3531L24.0685 23.0269L31.0686 26.1428C32.5418 26.5995 33.5433 27.9536 33.5433 29.4707V41.2756H35.3249C36.045 41.2756 36.6243 40.7047 36.6243 39.995V28.182C36.6243 26.6648 35.6228 25.3108 34.1496 24.854Z" fill="#EF8B35"/>
<path d="M27.702 23.2388V19.9189H22.3635V23.2388L25.0286 23.3285L27.702 23.2388Z" fill="#FFCBBE"/>
<path d="M28.3804 18.9894C27.412 18.9894 22.7688 19.2015 22.3798 18.916H22.4129C21.7342 18.6957 20.2526 14.446 20.2526 14.446H19.2677V16.0366C19.2677 16.4445 19.5988 16.7707 20.0126 16.7707C20.145 16.7707 20.2526 16.8686 20.2609 16.9991C20.3933 19.1117 21.9411 20.8491 23.9772 21.2978C25.7898 20.6044 28.3804 18.9894 28.3804 18.9894Z" fill="#FFCBBE"/>
<path d="M29.821 14.446C29.821 14.446 28.9189 18.8833 27.8925 19.022C27.636 19.0546 25.8482 19.1444 25.6164 19.2015C25.6164 19.2015 25.3764 20.5555 23.5059 21.1754C23.9859 21.3385 24.4991 21.4201 25.0371 21.4201C27.578 21.4201 29.6555 19.4706 29.8128 17.0073C29.821 16.8768 29.9286 16.7789 30.0611 16.7789C30.4749 16.7789 30.806 16.4526 30.806 16.0448V14.446H29.821Z" fill="#FFCBBE"/>
<path d="M25.0284 25.2618L23.6048 26.469C23.2572 26.7708 22.7192 26.7137 22.4378 26.3467L20.261 23.4836L21.0473 22.8066C21.428 22.4803 22.0074 22.4885 22.3798 22.8311L25.0284 25.2618Z" fill="#FFA04F"/>
<path d="M25.1361 21.5178L24.9706 23.141C24.9871 23.5978 25.6244 23.9486 26.0879 23.8996L29.6966 23.5244L29.6635 22.4966C29.6469 21.9909 29.2497 21.5831 28.7448 21.5504L25.1361 21.5178Z" fill="#EF8B35"/>
<path d="M21.5357 21.5423C21.0308 21.5831 20.6252 21.9909 20.617 22.4885L20.5839 23.5162L24.1925 23.8914C24.656 23.9404 25.1609 23.5896 25.1775 23.1329L25.1444 21.5096L21.5357 21.5423Z" fill="#FFA04F"/>
<path d="M31.0156 33.7967C31.0156 33.5436 31.2207 33.3385 31.4738 33.3385C31.7268 33.3385 31.9319 33.5436 31.9319 33.7967V41.2497H31.0156V33.7967Z" fill="#EF8B35"/>
<path d="M17.3424 33.8225C17.3424 33.5695 17.5475 33.3644 17.8006 33.3644C18.0536 33.3644 18.2587 33.5695 18.2587 33.8225V41.2756H17.3424V33.8225Z" fill="#EF8B35"/>
<path d="M48.4745 18.8594C49.0356 18.8594 49.4904 18.4112 49.4904 17.8582C49.4904 17.3053 49.0356 16.8571 48.4745 16.8571C47.9135 16.8571 47.4586 17.3053 47.4586 17.8582C47.4586 18.4112 47.9135 18.8594 48.4745 18.8594Z" fill="#DD636E"/>
</svg>
